<svg xmlns="http://www.w3.org/2000/svg" xmlns:xlink="http://www.w3.org/1999/xlink" width="800" zoomAndPan="magnify" viewBox="0 0 600 599.999999" height="800" preserveAspectRatio="xMidYMid meet" version="1.0"><defs><filter x="0%" y="0%" width="100%" height="100%" id="dfcd25e59c"><feColorMatrix values="0 0 0 0 1 0 0 0 0 1 0 0 0 0 1 0 0 0 1 0" color-interpolation-filters="sRGB"/></filter><mask id="156094a088"><g filter="url(#dfcd25e59c)"><rect x="-60" width="720" fill="#000000" y="-60" height="719.999999" fill-opacity="0.1"/></g></mask><clipPath id="e8531104c2"><path d="M 0.964844 98 L 118 98 L 118 169 L 0.964844 169 Z M 0.964844 98 " clip-rule="nonzero"/></clipPath><clipPath id="ecd184396d"><path d="M 86 0.0390625 L 138 0.0390625 L 138 129 L 86 129 Z M 86 0.0390625 " clip-rule="nonzero"/></clipPath><clipPath id="a6ba5a44da"><path d="M 86 0.0390625 L 117 0.0390625 L 117 129 L 86 129 Z M 86 0.0390625 " clip-rule="nonzero"/></clipPath><clipPath id="45b1dca3e0"><path d="M 0.964844 101 L 118 101 L 118 169 L 0.964844 169 Z M 0.964844 101 " clip-rule="nonzero"/></clipPath><clipPath id="98e2d5e5b5"><rect x="0" width="334" y="0" height="507"/></clipPath></defs><g mask="url(#156094a088)"><g transform="matrix(1, 0, 0, 1, 133, 47)"><g clip-path="url(#98e2d5e5b5)"><g clip-path="url(#e8531104c2)"><path fill="#fbce5f" d="M 117.320312 165.085938 C 71.113281 178.953125 27.320312 144.335938 0.921875 101.800781 C 42.648438 93.5 81.03125 100.496094 109.8125 150.558594 C 112.390625 155.050781 114.894531 159.878906 117.320312 165.085938 Z M 117.320312 165.085938 " fill-opacity="1" fill-rule="nonzero"/></g><path fill="#fbce5f" d="M 121.144531 184.3125 C 120.964844 180.308594 120.886719 176.394531 120.910156 172.574219 C 121.207031 120.960938 140.226562 86.773438 182.566406 78.328125 C 185.039062 122.472656 169.132812 179.417969 121.144531 184.3125 Z M 121.144531 184.3125 " fill-opacity="1" fill-rule="nonzero"/><path fill="#fbce5f" d="M 144.28125 268.484375 C 143.800781 262.542969 143.613281 256.929688 143.710938 251.648438 C 144.628906 200.644531 171.460938 178.707031 207.25 160.980469 C 217.175781 210.898438 192.269531 263.589844 144.28125 268.484375 Z M 144.28125 268.484375 " fill-opacity="1" fill-rule="nonzero"/><path fill="#fbce5f" d="M 181.257812 360.511719 C 180.3125 355.023438 179.625 349.757812 179.191406 344.71875 C 174.554688 292.335938 196.257812 263.34375 236.308594 240.429688 C 250.640625 289.273438 228.621094 351.382812 181.257812 360.511719 Z M 181.257812 360.511719 " fill-opacity="1" fill-rule="nonzero"/><path fill="#fbce5f" d="M 227.582031 430.210938 C 225.472656 425.464844 223.640625 420.613281 222.082031 415.660156 C 206.613281 366.386719 231.285156 336.015625 260.476562 306.679688 C 260.480469 306.695312 260.484375 306.707031 260.492188 306.71875 C 286.261719 350.597656 271.285156 409.824219 227.582031 430.210938 Z M 227.582031 430.210938 " fill-opacity="1" fill-rule="nonzero"/><path fill="#fbce5f" d="M 286.6875 491.378906 C 284.699219 488.382812 282.890625 485.429688 281.265625 482.519531 C 254.035156 434.171875 273.890625 398.578125 300.308594 367.125 L 300.320312 367.136719 C 333.113281 406.054688 326.347656 463.914062 286.6875 491.378906 Z M 286.6875 491.378906 " fill-opacity="1" fill-rule="nonzero"/><path fill="#fbbd26" d="M 121.144531 184.3125 C 120.964844 180.308594 120.886719 176.394531 120.910156 172.574219 C 170.476562 149.394531 182.566406 78.328125 182.566406 78.328125 C 185.039062 122.472656 169.132812 179.417969 121.144531 184.3125 Z M 121.144531 184.3125 " fill-opacity="1" fill-rule="nonzero"/><path fill="#fbbd26" d="M 144.28125 268.484375 C 143.800781 262.542969 143.613281 256.929688 143.710938 251.648438 C 199.679688 237.042969 207.25 160.980469 207.25 160.980469 C 217.175781 210.898438 192.269531 263.589844 144.28125 268.484375 Z M 144.28125 268.484375 " fill-opacity="1" fill-rule="nonzero"/><path fill="#fbbd26" d="M 181.257812 360.511719 C 180.3125 355.023438 179.625 349.757812 179.191406 344.71875 C 241.023438 318.480469 236.308594 240.429688 236.308594 240.429688 C 250.640625 289.273438 228.621094 351.382812 181.257812 360.511719 Z M 181.257812 360.511719 " fill-opacity="1" fill-rule="nonzero"/><path fill="#fbbd26" d="M 227.582031 430.210938 C 225.472656 425.464844 223.640625 420.613281 222.082031 415.660156 C 280.890625 382.980469 261.019531 308.644531 260.492188 306.71875 C 286.261719 350.597656 271.285156 409.824219 227.582031 430.210938 Z M 227.582031 430.210938 " fill-opacity="1" fill-rule="nonzero"/><path fill="#fbbd26" d="M 286.6875 491.378906 C 284.699219 488.382812 282.890625 485.429688 281.265625 482.519531 C 331.824219 440.703125 300.863281 368.386719 300.320312 367.136719 C 333.113281 406.054688 326.347656 463.914062 286.6875 491.378906 Z M 286.6875 491.378906 " fill-opacity="1" fill-rule="nonzero"/><g clip-path="url(#ecd184396d)"><path fill="#fbce5f" d="M 115.425781 119.609375 C 113.511719 122.382812 111.464844 125.183594 109.277344 128.011719 C 71.4375 80.9375 86.078125 39.304688 116.636719 0.324219 C 116.65625 0.300781 116.675781 0.273438 116.6875 0.246094 C 142.691406 36.296875 147.070312 73.835938 115.425781 119.609375 Z M 115.425781 119.609375 " fill-opacity="1" fill-rule="nonzero"/></g><path fill="#fbce5f" d="M 137.28125 244.921875 C 92.105469 261.796875 51.761719 233.765625 22.640625 193.089844 L 22.613281 193.066406 C 64.085938 181.921875 98.351562 183.457031 129.824219 232.34375 C 132.328125 236.230469 134.8125 240.421875 137.28125 244.921875 Z M 137.28125 244.921875 " fill-opacity="1" fill-rule="nonzero"/><path fill="#fbbd26" d="M 137.28125 244.921875 C 92.105469 261.796875 51.761719 233.765625 22.640625 193.089844 C 24.074219 194.472656 75.03125 243.269531 129.824219 232.34375 C 132.328125 236.230469 134.8125 240.421875 137.28125 244.921875 Z M 137.28125 244.921875 " fill-opacity="1" fill-rule="nonzero"/><path fill="#fbce5f" d="M 171.304688 340.03125 C 126.128906 356.921875 85.78125 328.890625 56.660156 288.203125 L 56.632812 288.175781 C 97.9375 277.085938 132.085938 278.570312 163.457031 326.863281 C 166.085938 330.917969 168.707031 335.296875 171.304688 340.03125 Z M 171.304688 340.03125 " fill-opacity="1" fill-rule="nonzero"/><path fill="#fbce5f" d="M 214.191406 413.039062 C 171.84375 436.113281 133.382812 411.335938 98.820312 375.152344 L 98.792969 375.128906 C 137.71875 358.511719 166.898438 357.320312 203.488281 399.675781 C 206.988281 403.730469 210.554688 408.183594 214.191406 413.039062 Z M 214.191406 413.039062 " fill-opacity="1" fill-rule="nonzero"/><path fill="#fbce5f" d="M 269.941406 476.347656 C 231.933594 506.03125 186.640625 490.5 146.605469 460.453125 C 146.597656 460.445312 146.589844 460.441406 146.578125 460.441406 C 182.363281 437.597656 213.804688 429.503906 257.507812 465.292969 C 261.535156 468.585938 265.679688 472.273438 269.941406 476.347656 Z M 269.941406 476.347656 " fill-opacity="1" fill-rule="nonzero"/><path fill="#fbbd26" d="M 171.304688 340.03125 C 126.128906 356.921875 85.78125 328.890625 56.660156 288.203125 C 58.105469 289.609375 110.652344 340.109375 163.457031 326.863281 C 166.085938 330.917969 168.707031 335.296875 171.304688 340.03125 Z M 171.304688 340.03125 " fill-opacity="1" fill-rule="nonzero"/><path fill="#fbbd26" d="M 214.191406 413.039062 C 171.84375 436.113281 133.382812 411.335938 98.820312 375.152344 C 100.214844 376.277344 155.433594 420.800781 203.488281 399.675781 C 206.988281 403.730469 210.554688 408.183594 214.191406 413.039062 Z M 214.191406 413.039062 " fill-opacity="1" fill-rule="nonzero"/><path fill="#fbbd26" d="M 269.941406 476.347656 C 231.933594 506.03125 186.640625 490.5 146.605469 460.453125 C 148.152344 461.148438 218.851562 493.09375 257.507812 465.292969 C 261.535156 468.585938 265.679688 472.273438 269.941406 476.347656 Z M 269.941406 476.347656 " fill-opacity="1" fill-rule="nonzero"/><path fill="#bd9230" d="M 294.917969 502.566406 C 294.332031 502.570312 293.824219 502.367188 293.394531 501.96875 C 225.667969 438.8125 197.722656 398.082031 176.597656 356.351562 C 150.316406 304.445312 130.175781 238.421875 107.089844 128.464844 C 107.035156 128.175781 107.039062 127.890625 107.097656 127.605469 C 107.15625 127.316406 107.265625 127.054688 107.429688 126.8125 C 107.589844 126.566406 107.792969 126.367188 108.035156 126.203125 C 108.277344 126.039062 108.542969 125.925781 108.828125 125.867188 C 109.113281 125.804688 109.398438 125.800781 109.6875 125.855469 C 109.972656 125.90625 110.242188 126.011719 110.488281 126.167969 C 110.734375 126.324219 110.941406 126.523438 111.109375 126.761719 C 111.28125 127 111.398438 127.261719 111.464844 127.546875 C 154.132812 330.714844 186.980469 396.621094 296.4375 498.691406 C 296.777344 499.003906 296.996094 499.382812 297.097656 499.832031 C 297.203125 500.28125 297.167969 500.71875 297 501.148438 C 296.832031 501.574219 296.558594 501.917969 296.179688 502.179688 C 295.800781 502.4375 295.378906 502.566406 294.917969 502.566406 Z M 294.917969 502.566406 " fill-opacity="1" fill-rule="nonzero"/><g clip-path="url(#a6ba5a44da)"><path fill="#fbbd26" d="M 115.425781 119.609375 C 113.511719 122.382812 111.464844 125.183594 109.277344 128.011719 C 71.4375 80.9375 86.078125 39.304688 116.636719 0.324219 C 115.179688 2.804688 80.785156 62.148438 115.425781 119.609375 Z M 115.425781 119.609375 " fill-opacity="1" fill-rule="nonzero"/></g><g clip-path="url(#45b1dca3e0)"><path fill="#fbbd26" d="M 117.320312 165.085938 C 71.113281 178.953125 27.320312 144.335938 0.921875 101.800781 C 0.921875 101.800781 54.992188 159.984375 109.8125 150.558594 C 112.390625 155.050781 114.894531 159.878906 117.320312 165.085938 Z M 117.320312 165.085938 " fill-opacity="1" fill-rule="nonzero"/></g></g></g></g></svg>